<?xml version="1.0" encoding="utf-8"?>
<!-- Generator: Adobe Illustrator 19.1.0, SVG Export Plug-In . SVG Version: 6.00 Build 0)  -->
<svg version="1.1" baseProfile="basic" id="Layer_1"
	 xmlns="http://www.w3.org/2000/svg" xmlns:xlink="http://www.w3.org/1999/xlink" x="0px" y="0px" width="256.8px" height="482.3px"
	 viewBox="0 0 256.8 482.3" xml:space="preserve">
<path fill="#41B655" d="M62.6,284.6l38.7,39.1c4.1,2.5,8.4,4.7,12.9,6.5c10.4,4.3,21.7,6.7,33.4,6.7c30.2,0,56.6-27.7,71.3-69.2
	l-23.3-7.6c-5.5,12.9-12.5,23.4-20.5,30.9c-0.3,0.3-0.6,0.5-0.8,0.8c-0.6,0.5-1.1,1-1.7,1.5c-0.7,0.6-1.4,1.1-2,1.6
	c-0.3,0.3-0.7,0.5-1,0.7c-0.4,0.3-0.9,0.6-1.3,0.9c-0.3,0.2-0.7,0.4-1,0.6c-0.7,0.4-1.3,0.8-2,1.2c-1.7,0.9-3.4,1.7-5.2,2.4h0
	c-0.3,0.1-0.5,0.2-0.8,0.3c-0.6,0.2-1.3,0.4-1.9,0.6c-0.6,0.2-1.3,0.4-2,0.5c-0.7,0.1-1.3,0.3-2,0.4c-0.7,0.1-1.3,0.2-2,0.3
	c-0.4,0-0.8,0.1-1.2,0.1h0c-0.4,0-0.8,0.1-1.2,0.1s-0.8,0-1.2,0c-1.6,0-3.2-0.1-4.9-0.3c-0.5-0.1-1-0.1-1.5-0.2c0,0-0.1,0-0.1,0
	c-0.5-0.1-1-0.2-1.5-0.3h0c-0.4-0.1-0.7-0.2-1.1-0.3h0c0,0,0,0,0,0c-0.1,0-0.3-0.1-0.4-0.1c0,0,0,0-0.1,0c-1.4-0.4-2.7-0.8-4.1-1.3
	c-0.4-0.2-0.9-0.4-1.3-0.5c-0.7-0.3-1.3-0.6-2-0.9c-0.7-0.3-1.3-0.6-1.9-1c0,0,0,0,0,0c-0.7-0.4-1.4-0.8-2.1-1.2
	c-0.4-0.3-0.8-0.5-1.2-0.8c-0.6-0.4-1.2-0.7-1.7-1.2c-1.2-0.9-2.5-1.8-3.7-2.8c-0.8-0.7-1.6-1.4-2.4-2.1c-1.7-1.6-3.4-3.3-5.1-5.2
	c-8.5-9.7-15.5-22.8-20.4-38.2L62.6,284.6z"/>
<path fill="#5D4137" d="M195.6,260.1c2.6-6.1,4.9-12.7,6.7-19.8c0.4-1.7,0.9-3.5,1.3-5.3c3-13.1,4.7-27.6,4.7-42.7
	c0-6.3,5.1-11.4,11.4-11.4c6.3,0,11.4,5.1,11.4,11.4c0,0.7,0,1.3,0,2c0,0.6,0,1.2,0,1.9c-0.2,12.5-1.3,24.6-3.2,36.1
	c-0.3,2-0.7,3.9-1,5.8c-0.5,2.7-1.1,5.4-1.7,8c-0.7,3.2-1.5,6.2-2.4,9.3h0c-1.1,4.2-2.5,8.2-3.8,12.2v0L195.6,260.1z"/>
<path fill="#5CBC6B" d="M241.5,264.3c-14.7,41.5-41.1,69.2-71.3,69.2c-11.7,0-23-2.4-33.4-6.7c-4.4-1.8-8.7-4-12.9-6.5
	c1.6,2.1,3.2,6.1,4.7,11.8c3.4,13.3,6.2,35.6,8.2,63.5c0.1,1.6,0.2,3.3,0.3,5c0.8,11.9,1.4,24.7,1.8,38.3v0.4c0,1.2,0.1,2.5,0.1,3.8
	c0,0.2,0,0.3,0,0.5c0,0.3,0,0.6,0,0.9c0.2,7.1,0.3,14.4,0.4,21.8v0.1c0,4.2,0.1,8.5,0.1,12.7c0,0,0,0,0,0.1v1.9c0,0.4,0,0.9,0,1.3
	H36.2c0,0,0-0.4,0-1.3c0-4.6,0.1-21.3,0.1-47.2c0-13.7,0-30.1,0-48.5c0-14.9,0-31.1,0-48.5c0-15.3,0-31.5,0-48.5v-97H107
	c0,37.5,11.1,70.5,28.1,89.9c1.7,1.9,3.3,3.6,5.1,5.2c0.8,0.7,1.6,1.4,2.4,2.1c1.6,1.3,3.2,2.6,4.9,3.7c0.6,0.4,1.3,0.8,1.9,1.2
	c0.5,0.3,1.1,0.6,1.6,0.9c0.8,0.5,1.7,0.9,2.5,1.3c0.6,0.3,1.1,0.5,1.7,0.8c1.8,0.7,3.6,1.4,5.4,1.8c0,0,0,0,0.1,0
	c0.1,0,0.3,0.1,0.4,0.1c0,0,0,0,0,0c0.4,0.1,0.8,0.2,1.1,0.3h0c0.5,0.1,1,0.2,1.5,0.3h0c0.5,0.1,1.1,0.2,1.6,0.2
	c0.5,0.1,1.1,0.1,1.6,0.2c1.1,0.1,2.2,0.1,3.2,0.1c0.4,0,0.8,0,1.2,0c0.4,0,0.8,0,1.2-0.1h0c0.4,0,0.8,0,1.2-0.1
	c0.2,0,0.5-0.1,0.7-0.1c0.2,0,0.4,0,0.6-0.1c0.5-0.1,1-0.1,1.5-0.3c0.5-0.1,1-0.2,1.4-0.3c0.4-0.1,0.7-0.2,1.1-0.3
	c0.5-0.1,1.1-0.3,1.6-0.5c0.3-0.1,0.6-0.2,1-0.3c0.3-0.1,0.5-0.2,0.8-0.3c2.8-1.1,5.5-2.5,8.2-4.2c0.7-0.4,1.4-0.9,2-1.4
	c0.4-0.3,0.9-0.7,1.3-1c0.6-0.5,1.3-1,1.9-1.5c0.6-0.5,1.1-1,1.7-1.5c8-7.4,15.1-18,20.5-30.9L241.5,264.3z"/>
<path fill="#795649" d="M253.7,188.9c0,0.7,0,1.3,0,2c0,0.6,0,1.2,0,1.9c-0.2,12.5-1.3,24.6-3.2,36.1c-0.1,0.2-0.2,0.5-0.3,0.8
	l-1.2,4.9l-22-5.7l-0.7,2.7c3-13.1,4.7-27.6,4.7-42.7c0-6.3,5.1-11.4,11.4-11.4C248.6,177.5,253.7,182.6,253.7,188.9z"/>
<path fill="#795649" d="M245.3,252.1c-1.1,4.2-2.5,8.2-3.8,12.2v0l-23.3-7.6c2.6-6.1,4.8-12.7,6.7-19.8l22.1,5.7l-1.8,7.3
	C245,250.7,245,251.4,245.3,252.1z"/>
<path fill="#212121" d="M252,235.1l-2.2,8.6l-1.3-0.3l-0.8-0.2l-23.8-6.2l-0.1,0l1.5-5.7l0.8-2.9l23.8,6.2l0.5,0.1L252,235.1z"/>
<path d="M256.8,230.5c0,0.3,0,0.5-0.1,0.8l-5,20.2c-0.4,1.8-2.3,2.9-4.1,2.5c-1.1-0.3-1.9-1-2.3-2h0c-0.3-0.7-0.3-1.4-0.1-2.1
	l1.8-7.3l2-8l1.2-4.9c0.1-0.3,0.2-0.6,0.3-0.8c0.7-1.3,2.3-2.1,3.8-1.7C255.8,227.6,256.8,229,256.8,230.5z"/>
<path fill="#263238" d="M250.6,151.3l-31.7,55l-4.5-2.6l31.7-55L250.6,151.3z"/>
<path fill="#795649" d="M133.7,118.5c-1.1-9.4-2.3-18-3.8-25.6c-0.8-3.8-1.6-7.3-2.5-10.5c0-20.3-10.5-38.3-26.6-49
	c-10.1-6.8-22.4-10.8-35.6-10.8c-12.9,0-24.6,5.8-33.5,15.3C21.5,48.8,15.1,64.6,15.1,82.3C6.5,83.8,0,91.3,0,100.3
	c0,8.1,5.3,15,12.6,17.5c0.2,0,0.3,0.1,0.5,0.1c12.1,4.1,22.9,32.3,23.3,71.4c0,0.7,0,1.3,0,2H107c0-13.2,0.4-25.4,1-35.7
	c0.3-5.2,0.7-9.8,1.1-13.8c1-9.9,2.4-15.8,3.9-15.8h15.3C131.3,126,133.7,122.7,133.7,118.5C133.7,118.6,133.7,118.5,133.7,118.5z
	 M85,105.2c-2.2,0-4-1.8-4-4c0-2.2,1.8-4,4-4s4,1.8,4,4C89,103.4,87.2,105.2,85,105.2z"/>
<path fill="#212121" d="M85,96.9c2.3,0,4.2,1.9,4.2,4.2c0,2.3-1.9,4.2-4.2,4.2s-4.2-1.9-4.2-4.2C80.7,98.8,82.6,96.9,85,96.9z"/>
<path fill="#212121" d="M28.5,14.9c0-5.1,5.9-24.3,93-9.3c-0.4,18.9-5.3,33.8-11.3,33.8c-20.8,0-37.6,13.8-37.6,30.8
	c0,14.7-15.4,26.6-34.3,26.6c-14.4,0-26-8.4-26-18.8C12.2,43.2,19.5,14.9,28.5,14.9z"/>
</svg>
