<?xml version="1.0" encoding="utf-8"?>
<!-- Generator: Adobe Illustrator 19.1.0, SVG Export Plug-In . SVG Version: 6.00 Build 0)  -->
<svg version="1.1" baseProfile="basic" id="Layer_1"
	 xmlns="http://www.w3.org/2000/svg" xmlns:xlink="http://www.w3.org/1999/xlink" x="0px" y="0px" width="205.2px" height="291px"
	 viewBox="0 0 205.2 291" xml:space="preserve">
<path fill="#5CBC6B" d="M205.2,72.9c-14.7,41.5-41.1,69.2-71.3,69.2c-11.7,0-23-2.4-33.4-6.7c-4.4-1.8-8.7-4-12.9-6.5
	c1.6,2.1,3.2,6.1,4.7,11.8c3.4,13.3,6.2,35.6,8.2,63.5c0.1,1.6,0.2,3.3,0.3,5c0.8,11.9,1.4,24.7,1.8,38.3v0.4c0,1.2,0.1,2.5,0.1,3.8
	c0,0.2,0,0.3,0,0.5c0,0.3,0,0.6,0,0.9c0.2,7.1,0.3,14.4,0.4,21.8v0.1c0,4.2,0.1,8.5,0.1,12.7c0,0,0,0,0,0.1v1.9c0,0.4,0,0.9,0,1.3H0
	c0,0,0-0.4,0-1.3c0-4.6,0.1-21.3,0.1-47.2c0-13.7,0-30.1,0-48.5c0-14.9,0-31.1,0-48.5c0-15.3,0-31.5,0-48.5V0h70.7
	c0,37.5,11.1,70.5,28.1,89.9c1.7,1.9,3.3,3.6,5.1,5.2c0.8,0.7,1.6,1.4,2.4,2.1c1.6,1.3,3.2,2.6,4.9,3.7c0.6,0.4,1.3,0.8,1.9,1.2
	c0.5,0.3,1.1,0.6,1.6,0.9c0.8,0.5,1.7,0.9,2.5,1.3c0.6,0.3,1.1,0.5,1.7,0.8c1.8,0.7,3.6,1.4,5.4,1.8c0,0,0,0,0.1,0
	c0.1,0,0.3,0.1,0.4,0.1c0,0,0,0,0,0c0.4,0.1,0.8,0.2,1.1,0.3h0c0.5,0.1,1,0.2,1.5,0.3h0c0.5,0.1,1.1,0.2,1.6,0.2
	c0.5,0.1,1.1,0.1,1.6,0.2c1.1,0.1,2.2,0.1,3.2,0.1c0.4,0,0.8,0,1.2,0c0.4,0,0.8,0,1.2-0.1h0c0.4,0,0.8,0,1.2-0.1
	c0.2,0,0.5-0.1,0.7-0.1c0.2,0,0.4,0,0.6-0.1c0.5-0.1,1-0.1,1.5-0.3c0.5-0.1,1-0.2,1.4-0.3c0.4-0.1,0.7-0.2,1.1-0.3
	c0.5-0.1,1.1-0.3,1.6-0.5c0.3-0.1,0.6-0.2,1-0.3c0.3-0.1,0.5-0.2,0.8-0.3c2.8-1.1,5.5-2.5,8.2-4.2c0.7-0.4,1.4-0.9,2-1.4
	c0.4-0.3,0.9-0.7,1.3-1c0.6-0.5,1.3-1,1.9-1.5c0.6-0.5,1.1-1,1.7-1.5c8-7.4,15.1-18,20.5-30.9L205.2,72.9z"/>
</svg>
